<svg xmlns="http://www.w3.org/2000/svg" xmlns:xlink="http://www.w3.org/1999/xlink" viewBox="0 0 55 55"><defs><style>.cls-1{fill:#8bff70;stroke:#fff;stroke-miterlimit:10;stroke-width:5px;}.cls-2{fill:url(#무제_그라디언트_49);}.cls-3{fill:#fff;}</style><linearGradient id="무제_그라디언트_49" x1="8.02" y1="38.75" x2="46.98" y2="16.25" gradientUnits="userSpaceOnUse"><stop offset="0" stop-color="#3ec300"/><stop offset="0.29" stop-color="#1eff24" stop-opacity="0.55"/><stop offset="0.38" stop-color="#3bff40" stop-opacity="0.49"/><stop offset="0.81" stop-color="#c7ffc9" stop-opacity="0.15"/><stop offset="1" stop-color="#fff" stop-opacity="0.02"/></linearGradient></defs><title>자산 52</title><g id="레이어_2" data-name="레이어 2"><g id="레이어_1-2" data-name="레이어 1"><circle class="cls-1" cx="27.5" cy="27.5" r="25"/><circle class="cls-2" cx="27.5" cy="27.5" r="22.5"/><path class="cls-3" d="M27.5,7.5a20,20,0,1,1-20,20,20,20,0,0,1,20-20m0-5a25,25,0,1,0,25,25,25,25,0,0,0-25-25Z"/><path d="M19.66,42.24a2.51,2.51,0,0,1-1.61-.44,3.13,3.13,0,0,1-.84-1,3.36,3.36,0,0,1-.35-1.4V14.59a3.4,3.4,0,0,1,.35-1.4,3.13,3.13,0,0,1,.84-1,2.57,2.57,0,0,1,1.61-.44h8.82a18.37,18.37,0,0,1,4.06.44,8.78,8.78,0,0,1,3.34,1.49,7.38,7.38,0,0,1,2.26,2.75A9.43,9.43,0,0,1,39,20.68,6.89,6.89,0,0,1,38.19,24a5.45,5.45,0,0,1-2,2.22A5.87,5.87,0,0,1,38.82,29a9.92,9.92,0,0,1,1,4.39,9,9,0,0,1-.86,4.1,7.45,7.45,0,0,1-2.33,2.73,9.7,9.7,0,0,1-3.39,1.52,16.79,16.79,0,0,1-4.06.47ZM32.58,20.58a3.07,3.07,0,0,0-.41-1.68,2.54,2.54,0,0,0-1.13-1,5.41,5.41,0,0,0-1.74-.44,20.44,20.44,0,0,0-2.15-.11H23.2v6.27h3.95a20.44,20.44,0,0,0,2.15-.11A5.69,5.69,0,0,0,31,23.12a2.76,2.76,0,0,0,1.13-.93A2.84,2.84,0,0,0,32.58,20.58ZM33.35,33a3.23,3.23,0,0,0-1.28-2.81,5.29,5.29,0,0,0-3.2-.93H23.2v7.38h5.67a6.36,6.36,0,0,0,1.71-.22A4.37,4.37,0,0,0,32,35.73a3.44,3.44,0,0,0,1-1.13A3.4,3.4,0,0,0,33.35,33Z"/></g></g></svg>