<svg xmlns="http://www.w3.org/2000/svg" viewBox="0 0 50 50"><defs><style>.cls-1{fill:#fff;}</style></defs><title>자산 12</title><g id="레이어_2" data-name="레이어 2"><g id="레이어_1-2" data-name="레이어 1"><circle class="cls-1" cx="25" cy="25" r="22.5"/><path d="M25,5A20,20,0,1,1,5,25,20,20,0,0,1,25,5m0-5A25,25,0,1,0,50,25,25,25,0,0,0,25,0Z"/><circle class="cls-1" cx="25" cy="25" r="22.5"/><path d="M25,5A20,20,0,1,1,5,25,20,20,0,0,1,25,5m0-5A25,25,0,1,0,50,25,25,25,0,0,0,25,0Z"/><path d="M18.7,19.69V37.61a1.64,1.64,0,0,1-.48,1.21,2.85,2.85,0,0,1-1.17.69,5,5,0,0,1-3,0,3,3,0,0,1-1.18-.74,1.69,1.69,0,0,1-.47-1.22V12.09a3.4,3.4,0,0,1,.35-1.4,3.13,3.13,0,0,1,.84-1,2.57,2.57,0,0,1,1.61-.44H17a2.68,2.68,0,0,1,1.34.35,5.11,5.11,0,0,1,1,.77,7.18,7.18,0,0,1,.87,1.09L30.56,29.38V11.53A1.69,1.69,0,0,1,31,10.31a3,3,0,0,1,1.18-.74,4.61,4.61,0,0,1,1.52-.24,4.94,4.94,0,0,1,1.52.22,2.9,2.9,0,0,1,1.17.72,1.65,1.65,0,0,1,.48,1.19V36.94a3.53,3.53,0,0,1-.35,1.4,3.13,3.13,0,0,1-.84,1,2.53,2.53,0,0,1-1.61.44H32.21a2.78,2.78,0,0,1-1.37-.33,4.42,4.42,0,0,1-1-.75A6.13,6.13,0,0,1,29,37.54Z"/></g></g></svg>