<svg xmlns="http://www.w3.org/2000/svg" xmlns:xlink="http://www.w3.org/1999/xlink" viewBox="0 0 50 50"><defs><style>.cls-1{fill:red;}.cls-2{fill:url(#무제_그라디언트_13);}.cls-3{fill:url(#무제_그라디언트_42);}.cls-4{fill:#fff;}</style><linearGradient id="무제_그라디언트_13" x1="3.34" y1="37.5" x2="46.66" y2="12.5" gradientUnits="userSpaceOnUse"><stop offset="0" stop-color="#ff7bac"/><stop offset="0.57" stop-color="#ff7bac" stop-opacity="0.55"/><stop offset="0.62" stop-color="#ff7bac" stop-opacity="0.49"/><stop offset="0.88" stop-color="#ff7bac" stop-opacity="0.15"/><stop offset="1" stop-color="#ff7bac" stop-opacity="0.02"/></linearGradient><linearGradient id="무제_그라디언트_42" x1="5.52" y1="36.25" x2="44.48" y2="13.75" gradientUnits="userSpaceOnUse"><stop offset="0" stop-color="#8e000b"/><stop offset="0.29" stop-color="#ff7bac" stop-opacity="0.55"/><stop offset="0.38" stop-color="#ff7bac" stop-opacity="0.49"/><stop offset="0.81" stop-color="#ff7bac" stop-opacity="0.15"/><stop offset="1" stop-color="#ff7bac" stop-opacity="0.02"/></linearGradient></defs><title>자산 22</title><g id="레이어_2" data-name="레이어 2"><g id="레이어_1-2" data-name="레이어 1"><circle class="cls-1" cx="25" cy="25" r="25"/><path class="cls-2" d="M25,5A20,20,0,1,1,5,25,20,20,0,0,1,25,5m0-5A25,25,0,1,0,50,25,25,25,0,0,0,25,0Z"/><circle class="cls-3" cx="25" cy="25" r="22.5"/><path class="cls-4" d="M25,5A20,20,0,1,1,5,25,20,20,0,0,1,25,5m0-5A25,25,0,1,0,50,25,25,25,0,0,0,25,0Z"/><path d="M27.42,10.29a21,21,0,0,1,4.36.44,9.75,9.75,0,0,1,3.59,1.52,7.64,7.64,0,0,1,2.43,2.91,10.36,10.36,0,0,1,.89,4.55,10.24,10.24,0,0,1-.89,4.53,7.49,7.49,0,0,1-2.42,2.87,9.81,9.81,0,0,1-3.55,1.51,20.34,20.34,0,0,1-4.27.43H22.7v9.56a1.64,1.64,0,0,1-.48,1.21,2.85,2.85,0,0,1-1.17.69,5,5,0,0,1-3,0,3,3,0,0,1-1.18-.74,1.69,1.69,0,0,1-.47-1.22V13.13a3.36,3.36,0,0,1,.35-1.4,3.31,3.31,0,0,1,.84-1,2.45,2.45,0,0,1,1.61-.46Zm4.9,9.42a3.61,3.61,0,0,0-.44-1.86,3.4,3.4,0,0,0-1.12-1.17,4.37,4.37,0,0,0-1.48-.61,7.08,7.08,0,0,0-1.54-.18h-5v7.56h5a8.57,8.57,0,0,0,1.52-.15,4.47,4.47,0,0,0,1.5-.58,3.31,3.31,0,0,0,1.12-1.14A3.57,3.57,0,0,0,32.32,19.71Z"/></g></g></svg>