<svg xmlns="http://www.w3.org/2000/svg" xmlns:xlink="http://www.w3.org/1999/xlink" viewBox="0 0 55 55"><defs><style>.cls-1{fill:#f39;stroke:#fff;stroke-miterlimit:10;stroke-width:5px;}.cls-2{fill:url(#무제_그라디언트_75);}.cls-3{fill:#fff;}</style><linearGradient id="무제_그라디언트_75" x1="8.02" y1="38.75" x2="46.98" y2="16.25" gradientUnits="userSpaceOnUse"><stop offset="0" stop-color="#8e0088"/><stop offset="0.48" stop-color="#f507ff" stop-opacity="0.55"/><stop offset="0.54" stop-color="#f627ff" stop-opacity="0.49"/><stop offset="0.86" stop-color="#fdc2ff" stop-opacity="0.15"/><stop offset="1" stop-color="#fff" stop-opacity="0.02"/></linearGradient></defs><title>자산 62</title><g id="레이어_2" data-name="레이어 2"><g id="레이어_1-2" data-name="레이어 1"><circle class="cls-1" cx="27.5" cy="27.5" r="25"/><circle class="cls-2" cx="27.5" cy="27.5" r="22.5"/><path class="cls-3" d="M27.5,7.5a20,20,0,1,1-20,20,20,20,0,0,1,20-20m0-5a25,25,0,1,0,25,25,25,25,0,0,0-25-25Z"/><path d="M27.05,37.06a10.62,10.62,0,0,0,2.46-.31A6.4,6.4,0,0,0,31.23,36a3,3,0,0,0,1-1,2.37,2.37,0,0,0,.34-1.2,2.08,2.08,0,0,0-.37-1.17,3.69,3.69,0,0,0-1-1,7.46,7.46,0,0,0-1.52-.79,15,15,0,0,0-1.89-.63c-1.17-.31-2.42-.68-3.76-1.12a17.85,17.85,0,0,1-3.75-1.75,10.21,10.21,0,0,1-2.88-2.71,6.85,6.85,0,0,1-1.16-4.05,8.93,8.93,0,0,1,.88-4.09,8.15,8.15,0,0,1,2.38-2.91A10.09,10.09,0,0,1,23,11.9a16,16,0,0,1,4.34-.56,16.21,16.21,0,0,1,3.33.33,10,10,0,0,1,2.92,1.09,9.23,9.23,0,0,1,2.43,2,10.43,10.43,0,0,1,1.82,2.92A3.4,3.4,0,0,1,38,19.48a2.38,2.38,0,0,1-.76,1.22,3.18,3.18,0,0,1-1.29.67,4,4,0,0,1-1.49.08A3.38,3.38,0,0,1,33.08,21a2,2,0,0,1-.85-1.05,4.27,4.27,0,0,0-2-2.31,6.43,6.43,0,0,0-2.9-.66,6.94,6.94,0,0,0-2,.26,4.92,4.92,0,0,0-1.51.72,3.08,3.08,0,0,0-1,1.08,2.68,2.68,0,0,0-.3,1.37,2.15,2.15,0,0,0,.63,1.43,5.82,5.82,0,0,0,1.49,1.12,12.16,12.16,0,0,0,2,.86c.74.25,1.46.46,2.16.65q1.78.48,3.6,1.14a13.59,13.59,0,0,1,3.29,1.68,8.56,8.56,0,0,1,2.4,2.51,6.66,6.66,0,0,1,.93,3.59,9,9,0,0,1-.88,4,8.08,8.08,0,0,1-2.47,2.92,11.58,11.58,0,0,1-3.81,1.79A18.83,18.83,0,0,1,27,42.7a19.26,19.26,0,0,1-3.52-.4,10.07,10.07,0,0,1-3.13-1.25,10,10,0,0,1-2.59-2.29,11.52,11.52,0,0,1-1.89-3.52,3.13,3.13,0,0,1-.07-1.83,2.43,2.43,0,0,1,.84-1.26A3.55,3.55,0,0,1,18,31.48a4,4,0,0,1,1.54-.09,3.51,3.51,0,0,1,1.37.49A1.75,1.75,0,0,1,21.73,33a6.37,6.37,0,0,0,.85,1.82,5.44,5.44,0,0,0,1.25,1.28,5.25,5.25,0,0,0,1.54.75A6.09,6.09,0,0,0,27.05,37.06Z"/></g></g></svg>