<?xml version="1.0" encoding="utf-8"?>
<!-- Generator: Adobe Illustrator 24.1.0, SVG Export Plug-In . SVG Version: 6.00 Build 0)  -->
<svg version="1.1" id="Layer_1" xmlns="http://www.w3.org/2000/svg" xmlns:xlink="http://www.w3.org/1999/xlink" x="0px" y="0px"
	 viewBox="0 0 481.9 208.4" style="enable-background:new 0 0 481.9 208.4;" xml:space="preserve">
<style type="text/css">
	.st0{fill:#E72B29;}
</style>
<g id="레이어_2">
	<g id="LKJ">
		<path id="넷플릭스" class="st0" d="M232.7,38.6h-58.8c0,5.4,0,13.2,0,18.7h2.5c2.6,0,5.1,0,7.7,0s5.1,0,7.7,0h2
			c0,30.1-0.1,57.7-0.1,87.8c6.2-0.2,12.9-0.4,19.1-0.6c0-30,0.1-57.3,0.1-87.3l19.9-0.1c0-5.3,0-13.3,0-18.6"/>
		<path id="넷플릭스-2" class="st0" d="M297.8,38.1h-52.9c0,0,0,70.6,0,106h6.2c4.3,0,8.6,0,12.8,0.1c0-15,0-28.7,0-43.8h3.2
			h7.5h7.6c2.6,0,5.2,0,7.7,0c0-5.4,0-13.4,0-18.8c-2.4,0-4.8,0-7.3,0h-7.9h-7.9h-3c0-9.7,0-15.1,0-24.8c2.1,0,12.5,0.3,12.5,0.3
			h6.4h15.5c0-5.4,0-13.6,0-19"/>
		<path id="넷플릭스-3" class="st0" d="M310.5,38.6c0,35.5-0.1,71.1-0.1,106.6c17,0.6,34.8,1.3,51.7,2.5c0-5.5,0-13.3,0-18.8
			c-10.7-0.6-21.9-1.4-32.6-1.8c0-30.4,0.1-58,0.1-88.4h-19.4"/>
		<path id="넷플릭스-4" class="st0" d="M377.8,38.1c0.1,36.7,0.1,73.5,0.2,110.2c6.2,0.5,12.6,1,18.9,1.6c0-37.2,0-74.5,0-111.8
			H377.8"/>
		<path id="넷플릭스-5" class="st0" d="M413.2,38.4c7.6,18.6,14.6,37.2,22.4,56.9c-8,18.9-16.2,37.8-24.3,55.9
			c6.7,0.7,13.5,1.6,20.2,2.4c4.8-11.7,9.1-20.7,13.9-32.7c4.8,12.8,9.1,22.7,13.9,35.9c6.6,0.9,15.3,2.1,21.9,3
			c-8-21.5-16.8-43.9-24.9-64.2c8.1-19.1,16.3-37.3,24.6-58.5h-20.8c-5.2,13.6-8.7,21.5-13.7,33.3c-4.6-12.2-7.7-20.1-12.3-32.3
			h-21.2"/>
		<path id="넷플릭스-6" class="st0" d="M164.8,37.1l-0.2,110.2c-6.2,0.5-12.6,1-18.9,1.6c0-37.2,0-74.5,0-111.8H164.8"/>
		<path class="st0" d="M79.8,151.7V37.5c0-1.2,0.9-2.3,2.2-2.3h13.9c25.8,0,38.8,20,38.8,60.1c0,15.3-3,27.6-6.9,36.7
			c-2.1,5-5.6,9.3-10,12.4c-4.1,3.8-7.1,5.5-15.6,7.2c-0.1,0-0.2,0-0.3,0.1c-2.5,0.8-5.1,1.3-7.8,1.5L82.1,154
			c-1.2,0-2.2-0.9-2.3-2.1C79.8,151.8,79.8,151.7,79.8,151.7z M94.8,139.5c0,1.2,0.9,2.3,2.2,2.3l0,0c8.6,0,14.7-3.5,18.2-10.5
			s5.3-18.6,5.3-34.8c0-16.9-1.7-28.8-5-35.8c-3.3-7-9.4-10.5-18.2-10.5H97c-1.2,0-2.2,1.1-2.2,2.3c0,0,0,0,0,0V139.5z"/>
		<path class="st0" d="M10.3,163.2V37.7c0-1.3,1-2.5,2.4-2.5h15.3c28.4,0,42.6,22,42.6,66.1c0,16.9-3.3,30.3-7.6,40.4
			c-2.3,5.5-6.1,10.2-11,13.6c-4.5,4.2-7.8,6-17.1,7.9c-0.1,0-0.3,0.1-0.4,0.1c-2.8,0.9-5.6,1.5-8.6,1.6l-13.1,0.8
			c-1.3,0-2.5-1-2.5-2.3C10.3,163.4,10.3,163.3,10.3,163.2z M26.8,144c0,1.3,1,2.5,2.4,2.5l0,0c9.4,0,16.1-3.9,20-11.6
			S55,114.5,55,96.7c0-18.5-1.8-31.7-5.5-39.4c-3.7-7.7-10.3-11.6-20-11.6h-0.4c-1.4,0-2.4,1.2-2.4,2.5c0,0,0,0,0,0V144z
			 M62.9,135.8c-2.3,5.5-4.5,7.1-11,13.6l-17.1,7.9"/>
	</g>
</g>
</svg>
